<svg width="20" height="20" viewBox="0 0 20 20" fill="none" xmlns="http://www.w3.org/2000/svg">
<path d="M9.35318 7.73684L12.0909 10.2316V10.1053C12.0909 9.47712 11.8179 8.8747 11.3321 8.43054C10.8462 7.98637 10.1872 7.73684 9.5 7.73684H9.35318ZM5.63955 8.36842L6.97818 9.59211C6.935 9.75789 6.90909 9.92368 6.90909 10.1053C6.90909 10.7334 7.18206 11.3358 7.66795 11.78C8.15384 12.2242 8.81285 12.4737 9.5 12.4737C9.69 12.4737 9.88 12.45 10.0614 12.4105L11.4 13.6342C10.8214 13.8947 10.1823 14.0526 9.5 14.0526C8.35475 14.0526 7.2564 13.6367 6.44658 12.8965C5.63677 12.1562 5.18182 11.1522 5.18182 10.1053C5.18182 9.48158 5.35455 8.89737 5.63955 8.36842ZM0.863636 4.00263L2.83273 5.80263L3.22136 6.15789C1.79636 7.18421 0.673636 8.52632 0 10.1053C1.49409 13.5711 5.18182 16.0263 9.5 16.0263C10.8386 16.0263 12.1168 15.7895 13.2827 15.3632L13.6541 15.6947L16.1759 18L17.2727 16.9974L1.96045 3M9.5 6.15789C10.6453 6.15789 11.7436 6.57378 12.5534 7.31405C13.3632 8.05433 13.8182 9.05836 13.8182 10.1053C13.8182 10.6105 13.7059 11.1 13.5073 11.5421L16.0377 13.8553C17.3332 12.8684 18.3695 11.5737 19 10.1053C17.5059 6.63947 13.8182 4.18421 9.5 4.18421C8.29091 4.18421 7.13364 4.38158 6.04545 4.73684L7.91955 6.43421C8.41182 6.26053 8.93864 6.15789 9.5 6.15789Z" fill="#BEBEBE"/>
</svg>
