<svg width="20" height="20" viewBox="0 0 20 20" fill="none" xmlns="http://www.w3.org/2000/svg">
<path d="M10 6.9C9.27668 6.9 8.58299 7.17393 8.07153 7.66152C7.56006 8.14912 7.27273 8.81044 7.27273 9.5C7.27273 10.1896 7.56006 10.8509 8.07153 11.3385C8.58299 11.8261 9.27668 12.1 10 12.1C10.7233 12.1 11.417 11.8261 11.9285 11.3385C12.4399 10.8509 12.7273 10.1896 12.7273 9.5C12.7273 8.81044 12.4399 8.14912 11.9285 7.66152C11.417 7.17393 10.7233 6.9 10 6.9ZM10 13.8333C8.79447 13.8333 7.63832 13.3768 6.78588 12.5641C5.93344 11.7515 5.45455 10.6493 5.45455 9.5C5.45455 8.35073 5.93344 7.24853 6.78588 6.43587C7.63832 5.62321 8.79447 5.16667 10 5.16667C11.2055 5.16667 12.3617 5.62321 13.2141 6.43587C14.0666 7.24853 14.5455 8.35073 14.5455 9.5C14.5455 10.6493 14.0666 11.7515 13.2141 12.5641C12.3617 13.3768 11.2055 13.8333 10 13.8333ZM10 3C5.45455 3 1.57273 5.69533 0 9.5C1.57273 13.3047 5.45455 16 10 16C14.5455 16 18.4273 13.3047 20 9.5C18.4273 5.69533 14.5455 3 10 3Z" fill="#BEBEBE"/>
</svg>
